<svg xmlns="http://www.w3.org/2000/svg" xmlns:xlink="http://www.w3.org/1999/xlink" width="741" height="759" viewBox="0 0 741 759">
    <defs>
        <path id="prefix__a" d="M0 0.458L12.284 0.458 12.284 12.741 0 12.741z"/>
        <path id="prefix__c" d="M0 0.042L12.284 0.042 12.284 12.325 0 12.325z"/>
        <path id="prefix__e" d="M0.272 0.717L12.555 0.717 12.555 13 0.272 13z"/>
        <path id="prefix__g" d="M0.497 0.717L12.78 0.717 12.78 13 0.497 13z"/>
        <path id="prefix__i" d="M0.722 0.717L13.005 0.717 13.005 13 0.722 13z"/>
    </defs>
    <g fill="none" fill-rule="evenodd">
        <path fill="#F6F4F8" d="M439 6a6 6 0 11-12 0 6 6 0 0112 0M457 6a6 6 0 11-12 0 6 6 0 0112 0M474 6a6 6 0 11-12 0 6 6 0 0112 0M421 24a6 6 0 11-12 0 6 6 0 0112 0M439 24a6 6 0 11-12 0 6 6 0 0112 0M457 24a6 6 0 11-12 0 6 6 0 0112 0M474 24a6 6 0 11-12 0 6 6 0 0112 0M403 42a6 6 0 11-12 0 6 6 0 0112 0M421 42a6 6 0 11-12 0 6 6 0 0112 0M439 42a6 6 0 11-12 0 6 6 0 0112 0M457 42a6 6 0 11-12 0 6 6 0 0112 0M474 42a6 6 0 11-12 0 6 6 0 0112 0M65 59a6 6 0 11-12 0 6 6 0 0112 0M385 59a6 6 0 11-12 0 6 6 0 0112 0M403 59a6 6 0 11-12 0 6 6 0 0112 0M421 59a6 6 0 11-12 0 6 6 0 0112 0M439 59a6 6 0 11-12 0 6 6 0 0112 0M457 59a6 6 0 11-12 0 6 6 0 0112 0M474 59a6 6 0 11-12 0 6 6 0 0112 0M48 77a6 6 0 11-12 0 6 6 0 0112 0M65 77a6 6 0 11-12 0 6 6 0 0112 0M83 77a6 6 0 11-12 0 6 6 0 0112 0M101 77a6 6 0 11-12 0 6 6 0 0112 0M368 77a6 6 0 11-12 0 6 6 0 0112 0M385 77a6 6 0 11-12 0 6 6 0 0112 0M403 77a6 6 0 11-12 0 6 6 0 0112 0M421 77a6 6 0 11-12 0 6 6 0 0112 0M439 77a6 6 0 11-12 0 6 6 0 0112 0M457 77a6 6 0 11-12 0 6 6 0 0112 0M474 77a6 6 0 11-12 0 6 6 0 0112 0M492 77a6 6 0 11-12 0 6 6 0 0112 0M48 95a6 6 0 11-12 0 6 6 0 0112 0M65 95a6 6 0 11-12 0 6 6 0 0112 0M83 95a6 6 0 11-12 0 6 6 0 0112 0M101 95a6 6 0 11-12 0 6 6 0 0112 0M119 95a6 6 0 11-12 0 6 6 0 0112 0M385 95a6 6 0 11-12 0 6 6 0 0112 0M403 95a6 6 0 11-12 0 6 6 0 0112 0M421 95a6 6 0 11-12 0 6 6 0 0112 0M439 95a6 6 0 11-12 0 6 6 0 0112 0M457 95a6 6 0 11-12 0 6 6 0 0112 0M474 95a6 6 0 11-12 0 6 6 0 0112 0M492 95a6 6 0 11-12 0 6 6 0 0112 0M48 113a6 6 0 11-12 0 6 6 0 0112 0M65 113a6 6 0 11-12 0 6 6 0 0112 0M83 113a6 6 0 11-12 0 6 6 0 0112 0M101 113a6 6 0 11-12 0 6 6 0 0112 0M119 113a6 6 0 11-12 0 6 6 0 0112 0M368 113a6 6 0 11-12 0 6 6 0 0112 0M385 113a6 6 0 11-12 0 6 6 0 0112 0M403 113a6 6 0 11-12 0 6 6 0 0112 0M421 113a6 6 0 11-12 0 6 6 0 0112 0M439 113a6 6 0 11-12 0 6 6 0 0112 0M457 113a6 6 0 11-12 0 6 6 0 0112 0M474 113a6 6 0 11-12 0 6 6 0 0112 0M492 113a6 6 0 11-12 0 6 6 0 0112 0M65 130a6 6 0 11-12 0 6 6 0 0112 0M83 130a6 6 0 11-12 0 6 6 0 0112 0M368 130a6 6 0 11-12 0 6 6 0 0112 0M385 130a6 6 0 11-12 0 6 6 0 0112 0M403 130a6 6 0 11-12 0 6 6 0 0112 0M421 130a6 6 0 11-12 0 6 6 0 0112 0M474 130a6 6 0 11-12 0 6 6 0 0112 0M492 130a6 6 0 11-12 0 6 6 0 0112 0M510 130a6 6 0 11-12 0 6 6 0 0112 0M350 148a6 6 0 11-12 0 6 6 0 0112 0M368 148a6 6 0 11-12 0 6 6 0 0112 0M385 148a6 6 0 11-12 0 6 6 0 0112 0M403 148a6 6 0 11-12 0 6 6 0 0112 0M421 148a6 6 0 11-12 0 6 6 0 0112 0M474 148a6 6 0 11-12 0 6 6 0 0112 0M492 148a6 6 0 11-12 0 6 6 0 0112 0M510 148a6 6 0 11-12 0 6 6 0 0112 0M528 148a6 6 0 11-12 0 6 6 0 0112 0M332 166a6 6 0 11-12 0 6 6 0 0112 0M350 166a6 6 0 11-12 0 6 6 0 0112 0M368 166a6 6 0 11-12 0 6 6 0 0112 0M385 166a6 6 0 11-12 0 6 6 0 0112 0M403 166a6 6 0 11-12 0 6 6 0 0112 0M421 166a6 6 0 11-12 0 6 6 0 0112 0M457 166a6 6 0 11-12 0 6 6 0 0112 0M474 166a6 6 0 11-12 0 6 6 0 0112 0M492 166a6 6 0 11-12 0 6 6 0 0112 0M510 166a6 6 0 11-12 0 6 6 0 0112 0M528 166a6 6 0 11-12 0 6 6 0 0112 0M314 184a6 6 0 11-12 0 6 6 0 0112 0M332 184a6 6 0 11-12 0 6 6 0 0112 0M350 184a6 6 0 11-12 0 6 6 0 0112 0M368 184a6 6 0 11-12 0 6 6 0 0112 0M385 184a6 6 0 11-12 0 6 6 0 0112 0M403 184a6 6 0 11-12 0 6 6 0 0112 0M439 184a6 6 0 11-12 0 6 6 0 0112 0M457 184a6 6 0 11-12 0 6 6 0 0112 0M474 184a6 6 0 11-12 0 6 6 0 0112 0M492 184a6 6 0 11-12 0 6 6 0 0112 0M510 184a6 6 0 11-12 0 6 6 0 0112 0M528 184a6 6 0 11-12 0 6 6 0 0112 0M172 202a6 6 0 11-12 0 6 6 0 0112 0M297 202a6 6 0 11-12 0 6 6 0 0112 0M314 202a6 6 0 11-12 0 6 6 0 0112 0M332 202a6 6 0 11-12 0 6 6 0 0112 0M350 202a6 6 0 11-12 0 6 6 0 0112 0M368 202a6 6 0 11-12 0 6 6 0 0112 0M385 202a6 6 0 11-12 0 6 6 0 0112 0M403 202a6 6 0 11-12 0 6 6 0 0112 0M457 202a6 6 0 11-12 0 6 6 0 0112 0M474 202a6 6 0 11-12 0 6 6 0 0112 0M492 202a6 6 0 11-12 0 6 6 0 0112 0M510 202a6 6 0 11-12 0 6 6 0 0112 0M528 202a6 6 0 11-12 0 6 6 0 0112 0M297 219a6 6 0 11-12 0 6 6 0 0112 0M314 219a6 6 0 11-12 0 6 6 0 0112 0M332 219a6 6 0 11-12 0 6 6 0 0112 0M350 219a6 6 0 11-12 0 6 6 0 0112 0M368 219a6 6 0 11-12 0 6 6 0 0112 0M385 219a6 6 0 11-12 0 6 6 0 0112 0M403 219a6 6 0 11-12 0 6 6 0 0112 0M457 219a6 6 0 11-12 0 6 6 0 0112 0M474 219a6 6 0 11-12 0 6 6 0 0112 0M492 219a6 6 0 11-12 0 6 6 0 0112 0M510 219a6 6 0 11-12 0 6 6 0 0112 0M225 237a6 6 0 11-12 0 6 6 0 0112 0M279 237a6 6 0 11-12 0 6 6 0 0112 0M297 237a6 6 0 11-12 0 6 6 0 0112 0M314 237a6 6 0 11-12 0 6 6 0 0112 0M332 237a6 6 0 11-12 0 6 6 0 0112 0M350 237a6 6 0 11-12 0 6 6 0 0112 0M368 237a6 6 0 11-12 0 6 6 0 0112 0M385 237a6 6 0 11-12 0 6 6 0 0112 0M403 237a6 6 0 11-12 0 6 6 0 0112 0M457 237a6 6 0 11-12 0 6 6 0 0112 0M474 237a6 6 0 11-12 0 6 6 0 0112 0M279 255a6 6 0 11-12 0 6 6 0 0112 0M297 255a6 6 0 11-12 0 6 6 0 0112 0M314 255a6 6 0 11-12 0 6 6 0 0112 0M332 255a6 6 0 11-12 0 6 6 0 0112 0M350 255a6 6 0 11-12 0 6 6 0 0112 0M368 255a6 6 0 11-12 0 6 6 0 0112 0M385 255a6 6 0 11-12 0 6 6 0 0112 0M403 255a6 6 0 11-12 0 6 6 0 0112 0M421 255a6 6 0 11-12 0 6 6 0 0112 0M492 255a6 6 0 11-12 0 6 6 0 0112 0M510 255a6 6 0 11-12 0 6 6 0 0112 0M154 273a6 6 0 11-12 0 6 6 0 0112 0M172 273a6 6 0 11-12 0 6 6 0 0112 0M190 273a6 6 0 11-12 0 6 6 0 0112 0M279 273a6 6 0 11-12 0 6 6 0 0112 0M297 273a6 6 0 11-12 0 6 6 0 0112 0M314 273a6 6 0 11-12 0 6 6 0 0112 0M332 273a6 6 0 11-12 0 6 6 0 0112 0M350 273a6 6 0 11-12 0 6 6 0 0112 0M368 273a6 6 0 11-12 0 6 6 0 0112 0M385 273a6 6 0 11-12 0 6 6 0 0112 0M403 273a6 6 0 11-12 0 6 6 0 0112 0M421 273a6 6 0 11-12 0 6 6 0 0112 0M474 273a6 6 0 11-12 0 6 6 0 0112 0M492 273a6 6 0 11-12 0 6 6 0 0112 0M510 273a6 6 0 11-12 0 6 6 0 0112 0M528 273a6 6 0 11-12 0 6 6 0 0112 0M136 291a6 6 0 11-12 0 6 6 0 0112 0M154 291a6 6 0 11-12 0 6 6 0 0112 0M172 291a6 6 0 11-12 0 6 6 0 0112 0M297 291a6 6 0 11-12 0 6 6 0 0112 0M314 291a6 6 0 11-12 0 6 6 0 0112 0M368 291a6 6 0 11-12 0 6 6 0 0112 0M385 291a6 6 0 11-12 0 6 6 0 0112 0M403 291a6 6 0 11-12 0 6 6 0 0112 0M492 291a6 6 0 11-12 0 6 6 0 0112 0M510 291a6 6 0 11-12 0 6 6 0 0112 0M528 291a6 6 0 11-12 0 6 6 0 0112 0M154 308a6 6 0 11-12 0 6 6 0 0112 0M172 308a6 6 0 11-12 0 6 6 0 0112 0M190 308a6 6 0 11-12 0 6 6 0 0112 0M332 308a6 6 0 11-12 0 6 6 0 0112 0M368 308a6 6 0 11-12 0 6 6 0 0112 0M385 308a6 6 0 11-12 0 6 6 0 0112 0M403 308a6 6 0 11-12 0 6 6 0 0112 0M439 308a6 6 0 11-12 0 6 6 0 0112 0M474 308a6 6 0 11-12 0 6 6 0 0112 0M492 308a6 6 0 11-12 0 6 6 0 0112 0M510 308a6 6 0 11-12 0 6 6 0 0112 0M528 308a6 6 0 11-12 0 6 6 0 0112 0M546 308a6 6 0 11-12 0 6 6 0 0112 0M563 308a6 6 0 11-12 0 6 6 0 0112 0M581 308a6 6 0 11-12 0 6 6 0 0112 0M154 326a6 6 0 11-12 0 6 6 0 0112 0M172 326a6 6 0 11-12 0 6 6 0 0112 0M190 326a6 6 0 11-12 0 6 6 0 0112 0M314 326a6 6 0 11-12 0 6 6 0 0112 0M332 326a6 6 0 11-12 0 6 6 0 0112 0M368 326a6 6 0 11-12 0 6 6 0 0112 0M385 326a6 6 0 11-12 0 6 6 0 0112 0M403 326a6 6 0 11-12 0 6 6 0 0112 0M457 326a6 6 0 11-12 0 6 6 0 0112 0M474 326a6 6 0 11-12 0 6 6 0 0112 0M492 326a6 6 0 11-12 0 6 6 0 0112 0M510 326a6 6 0 11-12 0 6 6 0 0112 0M528 326a6 6 0 11-12 0 6 6 0 0112 0M546 326a6 6 0 11-12 0 6 6 0 0112 0M563 326a6 6 0 11-12 0 6 6 0 0112 0M581 326a6 6 0 11-12 0 6 6 0 0112 0M119 344a6 6 0 11-12 0 6 6 0 0112 0M136 344a6 6 0 11-12 0 6 6 0 0112 0M172 344a6 6 0 11-12 0 6 6 0 0112 0M190 344a6 6 0 11-12 0 6 6 0 0112 0M314 344a6 6 0 11-12 0 6 6 0 0112 0M332 344a6 6 0 11-12 0 6 6 0 0112 0M350 344a6 6 0 11-12 0 6 6 0 0112 0M368 344a6 6 0 11-12 0 6 6 0 0112 0M385 344a6 6 0 11-12 0 6 6 0 0112 0M474 344a6 6 0 11-12 0 6 6 0 0112 0M492 344a6 6 0 11-12 0 6 6 0 0112 0M510 344a6 6 0 11-12 0 6 6 0 0112 0M528 344a6 6 0 11-12 0 6 6 0 0112 0M546 344a6 6 0 11-12 0 6 6 0 0112 0M563 344a6 6 0 11-12 0 6 6 0 0112 0M581 344a6 6 0 11-12 0 6 6 0 0112 0M599 344a6 6 0 11-12 0 6 6 0 0112 0M101 362a6 6 0 11-12 0 6 6 0 0112 0M119 362a6 6 0 11-12 0 6 6 0 0112 0M136 362a6 6 0 11-12 0 6 6 0 0112 0M172 362a6 6 0 11-12 0 6 6 0 0112 0M190 362a6 6 0 11-12 0 6 6 0 0112 0M208 362a6 6 0 11-12 0 6 6 0 0112 0M314 362a6 6 0 11-12 0 6 6 0 0112 0M332 362a6 6 0 11-12 0 6 6 0 0112 0M421 362a6 6 0 11-12 0 6 6 0 0112 0M457 362a6 6 0 11-12 0 6 6 0 0112 0M474 362a6 6 0 11-12 0 6 6 0 0112 0M492 362a6 6 0 11-12 0 6 6 0 0112 0M510 362a6 6 0 11-12 0 6 6 0 0112 0M528 362a6 6 0 11-12 0 6 6 0 0112 0M546 362a6 6 0 11-12 0 6 6 0 0112 0M563 362a6 6 0 11-12 0 6 6 0 0112 0M581 362a6 6 0 11-12 0 6 6 0 0112 0M599 362a6 6 0 11-12 0 6 6 0 0112 0M635 362a6 6 0 11-12 0 6 6 0 0112 0M83 380a6 6 0 11-12 0 6 6 0 0112 0M101 380a6 6 0 11-12 0 6 6 0 0112 0M119 380a6 6 0 11-12 0 6 6 0 0112 0M172 380a6 6 0 11-12 0 6 6 0 0112 0M190 380a6 6 0 11-12 0 6 6 0 0112 0M208 380a6 6 0 11-12 0 6 6 0 0112 0M332 380a6 6 0 11-12 0 6 6 0 0112 0M350 380a6 6 0 11-12 0 6 6 0 0112 0M368 380a6 6 0 11-12 0 6 6 0 0112 0M385 380a6 6 0 11-12 0 6 6 0 0112 0M403 380a6 6 0 11-12 0 6 6 0 0112 0M421 380a6 6 0 11-12 0 6 6 0 0112 0M439 380a6 6 0 11-12 0 6 6 0 0112 0M457 380a6 6 0 11-12 0 6 6 0 0112 0M474 380a6 6 0 11-12 0 6 6 0 0112 0M492 380a6 6 0 11-12 0 6 6 0 0112 0M510 380a6 6 0 11-12 0 6 6 0 0112 0M528 380a6 6 0 11-12 0 6 6 0 0112 0M546 380a6 6 0 11-12 0 6 6 0 0112 0M563 380a6 6 0 11-12 0 6 6 0 0112 0M581 380a6 6 0 11-12 0 6 6 0 0112 0M599 380a6 6 0 11-12 0 6 6 0 0112 0M617 380a6 6 0 11-12 0 6 6 0 0112 0M635 380a6 6 0 11-12 0 6 6 0 0112 0M652 380a6 6 0 11-12 0 6 6 0 0112 0M83 397a6 6 0 11-12 0 6 6 0 0112 0M101 397a6 6 0 11-12 0 6 6 0 0112 0M119 397a6 6 0 11-12 0 6 6 0 0112 0M154 397a6 6 0 11-12 0 6 6 0 0112 0M172 397a6 6 0 11-12 0 6 6 0 0112 0M190 397a6 6 0 11-12 0 6 6 0 0112 0M208 397a6 6 0 11-12 0 6 6 0 0112 0M225 397a6 6 0 11-12 0 6 6 0 0112 0M279 397a6 6 0 11-12 0 6 6 0 0112 0M297 397a6 6 0 11-12 0 6 6 0 0112 0M314 397a6 6 0 11-12 0 6 6 0 0112 0M332 397a6 6 0 11-12 0 6 6 0 0112 0M350 397a6 6 0 11-12 0 6 6 0 0112 0M368 397a6 6 0 11-12 0 6 6 0 0112 0M385 397a6 6 0 11-12 0 6 6 0 0112 0M403 397a6 6 0 11-12 0 6 6 0 0112 0M421 397a6 6 0 11-12 0 6 6 0 0112 0M439 397a6 6 0 11-12 0 6 6 0 0112 0M457 397a6 6 0 11-12 0 6 6 0 0112 0M474 397a6 6 0 11-12 0 6 6 0 0112 0M492 397a6 6 0 11-12 0 6 6 0 0112 0M510 397a6 6 0 11-12 0 6 6 0 0112 0M528 397a6 6 0 11-12 0 6 6 0 0112 0M546 397a6 6 0 11-12 0 6 6 0 0112 0M563 397a6 6 0 11-12 0 6 6 0 0112 0M581 397a6 6 0 11-12 0 6 6 0 0112 0M599 397a6 6 0 11-12 0 6 6 0 0112 0M617 397a6 6 0 11-12 0 6 6 0 0112 0M635 397a6 6 0 11-12 0 6 6 0 0112 0M652 397a6 6 0 11-12 0 6 6 0 0112 0M670 397a6 6 0 11-12 0 6 6 0 0112 0M688 397a6 6 0 11-12 0 6 6 0 0112 0M706 397a6 6 0 11-12 0 6 6 0 0112 0M723 397a6 6 0 11-12 0 6 6 0 0112 0M154 415a6 6 0 11-12 0 6 6 0 0112 0M172 415a6 6 0 11-12 0 6 6 0 0112 0M190 415a6 6 0 11-12 0 6 6 0 0112 0M208 415a6 6 0 11-12 0 6 6 0 0112 0M225 415a6 6 0 11-12 0 6 6 0 0112 0M261 415a6 6 0 11-12 0 6 6 0 0112 0M279 415a6 6 0 11-12 0 6 6 0 0112 0M297 415a6 6 0 11-12 0 6 6 0 0112 0M314 415a6 6 0 11-12 0 6 6 0 0112 0M332 415a6 6 0 11-12 0 6 6 0 0112 0M350 415a6 6 0 11-12 0 6 6 0 0112 0M368 415a6 6 0 11-12 0 6 6 0 0112 0M385 415a6 6 0 11-12 0 6 6 0 0112 0M403 415a6 6 0 11-12 0 6 6 0 0112 0M421 415a6 6 0 11-12 0 6 6 0 0112 0M439 415a6 6 0 11-12 0 6 6 0 0112 0M457 415a6 6 0 11-12 0 6 6 0 0112 0M474 415a6 6 0 11-12 0 6 6 0 0112 0M492 415a6 6 0 11-12 0 6 6 0 0112 0M510 415a6 6 0 11-12 0 6 6 0 0112 0M528 415a6 6 0 11-12 0 6 6 0 0112 0M546 415a6 6 0 11-12 0 6 6 0 0112 0M563 415a6 6 0 11-12 0 6 6 0 0112 0M581 415a6 6 0 11-12 0 6 6 0 0112 0M599 415a6 6 0 11-12 0 6 6 0 0112 0M617 415a6 6 0 11-12 0 6 6 0 0112 0M635 415a6 6 0 11-12 0 6 6 0 0112 0M652 415a6 6 0 11-12 0 6 6 0 0112 0M670 415a6 6 0 11-12 0 6 6 0 0112 0M688 415a6 6 0 11-12 0 6 6 0 0112 0M706 415a6 6 0 11-12 0 6 6 0 0112 0M723 415a6 6 0 11-12 0 6 6 0 0112 0M741 415a6 6 0 11-12 0 6 6 0 0112 0M136 433a6 6 0 11-12 0 6 6 0 0112 0M154 433a6 6 0 11-12 0 6 6 0 0112 0M172 433a6 6 0 11-12 0 6 6 0 0112 0M190 433a6 6 0 11-12 0 6 6 0 0112 0M208 433a6 6 0 11-12 0 6 6 0 0112 0M243 433a6 6 0 11-12 0 6 6 0 0112 0M261 433a6 6 0 11-12 0 6 6 0 0112 0M279 433a6 6 0 11-12 0 6 6 0 0112 0M297 433a6 6 0 11-12 0 6 6 0 0112 0M314 433a6 6 0 11-12 0 6 6 0 0112 0M332 433a6 6 0 11-12 0 6 6 0 0112 0M350 433a6 6 0 11-12 0 6 6 0 0112 0M368 433a6 6 0 11-12 0 6 6 0 0112 0M385 433a6 6 0 11-12 0 6 6 0 0112 0M403 433a6 6 0 11-12 0 6 6 0 0112 0M421 433a6 6 0 11-12 0 6 6 0 0112 0M439 433a6 6 0 11-12 0 6 6 0 0112 0M457 433a6 6 0 11-12 0 6 6 0 0112 0M474 433a6 6 0 11-12 0 6 6 0 0112 0M492 433a6 6 0 11-12 0 6 6 0 0112 0M510 433a6 6 0 11-12 0 6 6 0 0112 0M528 433a6 6 0 11-12 0 6 6 0 0112 0M546 433a6 6 0 11-12 0 6 6 0 0112 0M563 433a6 6 0 11-12 0 6 6 0 0112 0M581 433a6 6 0 11-12 0 6 6 0 0112 0M599 433a6 6 0 11-12 0 6 6 0 0112 0M617 433a6 6 0 11-12 0 6 6 0 0112 0M635 433a6 6 0 11-12 0 6 6 0 0112 0M652 433a6 6 0 11-12 0 6 6 0 0112 0M670 433a6 6 0 11-12 0 6 6 0 0112 0M688 433a6 6 0 11-12 0 6 6 0 0112 0M706 433a6 6 0 11-12 0 6 6 0 0112 0M723 433a6 6 0 11-12 0 6 6 0 0112 0M225 451a6 6 0 11-12 0 6 6 0 0112 0M243 451a6 6 0 11-12 0 6 6 0 0112 0M261 451a6 6 0 11-12 0 6 6 0 0112 0M279 451a6 6 0 11-12 0 6 6 0 0112 0M297 451a6 6 0 11-12 0 6 6 0 0112 0M314 451a6 6 0 11-12 0 6 6 0 0112 0M332 451a6 6 0 11-12 0 6 6 0 0112 0M350 451a6 6 0 11-12 0 6 6 0 0112 0M368 451a6 6 0 11-12 0 6 6 0 0112 0M385 451a6 6 0 11-12 0 6 6 0 0112 0M403 451a6 6 0 11-12 0 6 6 0 0112 0M421 451a6 6 0 11-12 0 6 6 0 0112 0M439 451a6 6 0 11-12 0 6 6 0 0112 0M457 451a6 6 0 11-12 0 6 6 0 0112 0M474 451a6 6 0 11-12 0 6 6 0 0112 0M492 451a6 6 0 11-12 0 6 6 0 0112 0M510 451a6 6 0 11-12 0 6 6 0 0112 0M528 451a6 6 0 11-12 0 6 6 0 0112 0M546 451a6 6 0 11-12 0 6 6 0 0112 0M563 451a6 6 0 11-12 0 6 6 0 0112 0M581 451a6 6 0 11-12 0 6 6 0 0112 0M599 451a6 6 0 11-12 0 6 6 0 0112 0M617 451a6 6 0 11-12 0 6 6 0 0112 0M635 451a6 6 0 11-12 0 6 6 0 0112 0M652 451a6 6 0 11-12 0 6 6 0 0112 0M670 451a6 6 0 11-12 0 6 6 0 0112 0M688 451a6 6 0 11-12 0 6 6 0 0112 0M706 451a6 6 0 11-12 0 6 6 0 0112 0M723 451a6 6 0 11-12 0 6 6 0 0112 0M172 469a6 6 0 11-12 0 6 6 0 0112 0M190 469a6 6 0 11-12 0 6 6 0 0112 0M208 469a6 6 0 11-12 0 6 6 0 0112 0M225 469a6 6 0 11-12 0 6 6 0 0112 0M243 469a6 6 0 11-12 0 6 6 0 0112 0M261 469a6 6 0 11-12 0 6 6 0 0112 0M279 469a6 6 0 11-12 0 6 6 0 0112 0M297 469a6 6 0 11-12 0 6 6 0 0112 0M314 469a6 6 0 11-12 0 6 6 0 0112 0M332 469a6 6 0 11-12 0 6 6 0 0112 0M350 469a6 6 0 11-12 0 6 6 0 0112 0M368 469a6 6 0 11-12 0 6 6 0 0112 0M385 469a6 6 0 11-12 0 6 6 0 0112 0M403 469a6 6 0 11-12 0 6 6 0 0112 0M421 469a6 6 0 11-12 0 6 6 0 0112 0M439 469a6 6 0 11-12 0 6 6 0 0112 0M457 469a6 6 0 11-12 0 6 6 0 0112 0M474 469a6 6 0 11-12 0 6 6 0 0112 0M492 469a6 6 0 11-12 0 6 6 0 0112 0M510 469a6 6 0 11-12 0 6 6 0 0112 0M528 469a6 6 0 11-12 0 6 6 0 0112 0M546 469a6 6 0 11-12 0 6 6 0 0112 0M563 469a6 6 0 11-12 0 6 6 0 0112 0M581 469a6 6 0 11-12 0 6 6 0 0112 0M599 469a6 6 0 11-12 0 6 6 0 0112 0M617 469a6 6 0 11-12 0 6 6 0 0112 0M635 469a6 6 0 11-12 0 6 6 0 0112 0M652 469a6 6 0 11-12 0 6 6 0 0112 0M670 469a6 6 0 11-12 0 6 6 0 0112 0M688 469a6 6 0 11-12 0 6 6 0 0112 0M706 469a6 6 0 11-12 0 6 6 0 0112 0M136 486a6 6 0 11-12 0 6 6 0 0112 0M154 486a6 6 0 11-12 0 6 6 0 0112 0M172 486a6 6 0 11-12 0 6 6 0 0112 0M190 486a6 6 0 11-12 0 6 6 0 0112 0M208 486a6 6 0 11-12 0 6 6 0 0112 0M225 486a6 6 0 11-12 0 6 6 0 0112 0M243 486a6 6 0 11-12 0 6 6 0 0112 0M261 486a6 6 0 11-12 0 6 6 0 0112 0M279 486a6 6 0 11-12 0 6 6 0 0112 0M297 486a6 6 0 11-12 0 6 6 0 0112 0M314 486a6 6 0 11-12 0 6 6 0 0112 0M332 486a6 6 0 11-12 0 6 6 0 0112 0M350 486a6 6 0 11-12 0 6 6 0 0112 0M368 486a6 6 0 11-12 0 6 6 0 0112 0M385 486a6 6 0 11-12 0 6 6 0 0112 0M403 486a6 6 0 11-12 0 6 6 0 0112 0M421 486a6 6 0 11-12 0 6 6 0 0112 0M439 486a6 6 0 11-12 0 6 6 0 0112 0M457 486a6 6 0 11-12 0 6 6 0 0112 0M474 486a6 6 0 11-12 0 6 6 0 0112 0M492 486a6 6 0 11-12 0 6 6 0 0112 0M510 486a6 6 0 11-12 0 6 6 0 0112 0M528 486a6 6 0 11-12 0 6 6 0 0112 0M546 486a6 6 0 11-12 0 6 6 0 0112 0M563 486a6 6 0 11-12 0 6 6 0 0112 0M581 486a6 6 0 11-12 0 6 6 0 0112 0M599 486a6 6 0 11-12 0 6 6 0 0112 0M617 486a6 6 0 11-12 0 6 6 0 0112 0M635 486a6 6 0 11-12 0 6 6 0 0112 0M652 486a6 6 0 11-12 0 6 6 0 0112 0M670 486a6 6 0 11-12 0 6 6 0 0112 0M723 486a6 6 0 11-12 0 6 6 0 0112 0M154 504a6 6 0 11-12 0 6 6 0 0112 0M172 504a6 6 0 11-12 0 6 6 0 0112 0M190 504a6 6 0 11-12 0 6 6 0 0112 0M208 504a6 6 0 11-12 0 6 6 0 0112 0M225 504a6 6 0 11-12 0 6 6 0 0112 0M243 504a6 6 0 11-12 0 6 6 0 0112 0M261 504a6 6 0 11-12 0 6 6 0 0112 0M279 504a6 6 0 11-12 0 6 6 0 0112 0M297 504a6 6 0 11-12 0 6 6 0 0112 0M314 504a6 6 0 11-12 0 6 6 0 0112 0M332 504a6 6 0 11-12 0 6 6 0 0112 0M350 504a6 6 0 11-12 0 6 6 0 0112 0M368 504a6 6 0 11-12 0 6 6 0 0112 0M385 504a6 6 0 11-12 0 6 6 0 0112 0M403 504a6 6 0 11-12 0 6 6 0 0112 0M421 504a6 6 0 11-12 0 6 6 0 0112 0M439 504a6 6 0 11-12 0 6 6 0 0112 0M457 504a6 6 0 11-12 0 6 6 0 0112 0M474 504a6 6 0 11-12 0 6 6 0 0112 0M492 504a6 6 0 11-12 0 6 6 0 0112 0M510 504a6 6 0 11-12 0 6 6 0 0112 0M528 504a6 6 0 11-12 0 6 6 0 0112 0M546 504a6 6 0 11-12 0 6 6 0 0112 0M563 504a6 6 0 11-12 0 6 6 0 0112 0M581 504a6 6 0 11-12 0 6 6 0 0112 0M599 504a6 6 0 11-12 0 6 6 0 0112 0M617 504a6 6 0 11-12 0 6 6 0 0112 0M670 504a6 6 0 11-12 0 6 6 0 0112 0M688 504a6 6 0 11-12 0 6 6 0 0112 0M706 504a6 6 0 11-12 0 6 6 0 0112 0M172 522a6 6 0 11-12 0 6 6 0 0112 0M190 522a6 6 0 11-12 0 6 6 0 0112 0M208 522a6 6 0 11-12 0 6 6 0 0112 0M225 522a6 6 0 11-12 0 6 6 0 0112 0M243 522a6 6 0 11-12 0 6 6 0 0112 0M261 522a6 6 0 11-12 0 6 6 0 0112 0M279 522a6 6 0 11-12 0 6 6 0 0112 0M297 522a6 6 0 11-12 0 6 6 0 0112 0M314 522a6 6 0 11-12 0 6 6 0 0112 0M332 522a6 6 0 11-12 0 6 6 0 0112 0M350 522a6 6 0 11-12 0 6 6 0 0112 0M368 522a6 6 0 11-12 0 6 6 0 0112 0M385 522a6 6 0 11-12 0 6 6 0 0112 0M403 522a6 6 0 11-12 0 6 6 0 0112 0M421 522a6 6 0 11-12 0 6 6 0 0112 0M439 522a6 6 0 11-12 0 6 6 0 0112 0M457 522a6 6 0 11-12 0 6 6 0 0112 0M474 522a6 6 0 11-12 0 6 6 0 0112 0M492 522a6 6 0 11-12 0 6 6 0 0112 0M510 522a6 6 0 11-12 0 6 6 0 0112 0M528 522a6 6 0 11-12 0 6 6 0 0112 0M546 522a6 6 0 11-12 0 6 6 0 0112 0M563 522a6 6 0 11-12 0 6 6 0 0112 0M581 522a6 6 0 11-12 0 6 6 0 0112 0M599 522a6 6 0 11-12 0 6 6 0 0112 0M617 522a6 6 0 11-12 0 6 6 0 0112 0M688 522a6 6 0 11-12 0 6 6 0 0112 0M190 540a6 6 0 11-12 0 6 6 0 0112 0M208 540a6 6 0 11-12 0 6 6 0 0112 0M225 540a6 6 0 11-12 0 6 6 0 0112 0M243 540a6 6 0 11-12 0 6 6 0 0112 0M261 540a6 6 0 11-12 0 6 6 0 0112 0M279 540a6 6 0 11-12 0 6 6 0 0112 0M297 540a6 6 0 11-12 0 6 6 0 0112 0M314 540a6 6 0 11-12 0 6 6 0 0112 0M332 540a6 6 0 11-12 0 6 6 0 0112 0M350 540a6 6 0 11-12 0 6 6 0 0112 0M368 540a6 6 0 11-12 0 6 6 0 0112 0M385 540a6 6 0 11-12 0 6 6 0 0112 0M403 540a6 6 0 11-12 0 6 6 0 0112 0M421 540a6 6 0 11-12 0 6 6 0 0112 0M439 540a6 6 0 11-12 0 6 6 0 0112 0M457 540a6 6 0 11-12 0 6 6 0 0112 0M474 540a6 6 0 11-12 0 6 6 0 0112 0M492 540a6 6 0 11-12 0 6 6 0 0112 0M510 540a6 6 0 11-12 0 6 6 0 0112 0M528 540a6 6 0 11-12 0 6 6 0 0112 0M546 540a6 6 0 11-12 0 6 6 0 0112 0M563 540a6 6 0 11-12 0 6 6 0 0112 0M581 540a6 6 0 11-12 0 6 6 0 0112 0M599 540a6 6 0 11-12 0 6 6 0 0112 0M617 540a6 6 0 11-12 0 6 6 0 0112 0M172 558a6 6 0 11-12 0 6 6 0 0112 0M190 558a6 6 0 11-12 0 6 6 0 0112 0M208 558a6 6 0 11-12 0 6 6 0 0112 0M225 558a6 6 0 11-12 0 6 6 0 0112 0M243 558a6 6 0 11-12 0 6 6 0 0112 0M261 558a6 6 0 11-12 0 6 6 0 0112 0M279 558a6 6 0 11-12 0 6 6 0 0112 0M297 558a6 6 0 11-12 0 6 6 0 0112 0M314 558a6 6 0 11-12 0 6 6 0 0112 0M332 558a6 6 0 11-12 0 6 6 0 0112 0M350 558a6 6 0 11-12 0 6 6 0 0112 0M368 558a6 6 0 11-12 0 6 6 0 0112 0M385 558a6 6 0 11-12 0 6 6 0 0112 0M403 558a6 6 0 11-12 0 6 6 0 0112 0M421 558a6 6 0 11-12 0 6 6 0 0112 0M439 558a6 6 0 11-12 0 6 6 0 0112 0M457 558a6 6 0 11-12 0 6 6 0 0112 0M474 558a6 6 0 11-12 0 6 6 0 0112 0M492 558a6 6 0 11-12 0 6 6 0 0112 0M510 558a6 6 0 11-12 0 6 6 0 0112 0M528 558a6 6 0 11-12 0 6 6 0 0112 0M546 558a6 6 0 11-12 0 6 6 0 0112 0M563 558a6 6 0 11-12 0 6 6 0 0112 0M581 558a6 6 0 11-12 0 6 6 0 0112 0M599 558a6 6 0 11-12 0 6 6 0 0112 0M617 558a6 6 0 11-12 0 6 6 0 0112 0M48 575a6 6 0 11-12 0 6 6 0 0112 0M65 575a6 6 0 11-12 0 6 6 0 0112 0M83 575a6 6 0 11-12 0 6 6 0 0112 0M101 575a6 6 0 11-12 0 6 6 0 0112 0M172 575a6 6 0 11-12 0 6 6 0 0112 0M190 575a6 6 0 11-12 0 6 6 0 0112 0M208 575a6 6 0 11-12 0 6 6 0 0112 0M225 575a6 6 0 11-12 0 6 6 0 0112 0M243 575a6 6 0 11-12 0 6 6 0 0112 0M261 575a6 6 0 11-12 0 6 6 0 0112 0M279 575a6 6 0 11-12 0 6 6 0 0112 0M297 575a6 6 0 11-12 0 6 6 0 0112 0M314 575a6 6 0 11-12 0 6 6 0 0112 0M332 575a6 6 0 11-12 0 6 6 0 0112 0M350 575a6 6 0 11-12 0 6 6 0 0112 0M368 575a6 6 0 11-12 0 6 6 0 0112 0M421 575a6 6 0 11-12 0 6 6 0 0112 0M439 575a6 6 0 11-12 0 6 6 0 0112 0M457 575a6 6 0 11-12 0 6 6 0 0112 0M474 575a6 6 0 11-12 0 6 6 0 0112 0M492 575a6 6 0 11-12 0 6 6 0 0112 0M510 575a6 6 0 11-12 0 6 6 0 0112 0M528 575a6 6 0 11-12 0 6 6 0 0112 0M546 575a6 6 0 11-12 0 6 6 0 0112 0M563 575a6 6 0 11-12 0 6 6 0 0112 0M581 575a6 6 0 11-12 0 6 6 0 0112 0M599 575a6 6 0 11-12 0 6 6 0 0112 0M706 575a6 6 0 11-12 0 6 6 0 0112 0M723 575a6 6 0 11-12 0 6 6 0 0112 0M741 575a6 6 0 11-12 0 6 6 0 0112 0M48 593a6 6 0 11-12 0 6 6 0 0112 0M65 593a6 6 0 11-12 0 6 6 0 0112 0M83 593a6 6 0 11-12 0 6 6 0 0112 0M101 593a6 6 0 11-12 0 6 6 0 0112 0M119 593a6 6 0 11-12 0 6 6 0 0112 0M136 593a6 6 0 11-12 0 6 6 0 0112 0M154 593a6 6 0 11-12 0 6 6 0 0112 0M172 593a6 6 0 11-12 0 6 6 0 0112 0M190 593a6 6 0 11-12 0 6 6 0 0112 0M208 593a6 6 0 11-12 0 6 6 0 0112 0M225 593a6 6 0 11-12 0 6 6 0 0112 0M243 593a6 6 0 11-12 0 6 6 0 0112 0M261 593a6 6 0 11-12 0 6 6 0 0112 0M279 593a6 6 0 11-12 0 6 6 0 0112 0M297 593a6 6 0 11-12 0 6 6 0 0112 0M332 593a6 6 0 11-12 0 6 6 0 0112 0M350 593a6 6 0 11-12 0 6 6 0 0112 0M368 593a6 6 0 11-12 0 6 6 0 0112 0M385 593a6 6 0 11-12 0 6 6 0 0112 0M421 593a6 6 0 11-12 0 6 6 0 0112 0M439 593a6 6 0 11-12 0 6 6 0 0112 0M457 593a6 6 0 11-12 0 6 6 0 0112 0M474 593a6 6 0 11-12 0 6 6 0 0112 0M492 593a6 6 0 11-12 0 6 6 0 0112 0M510 593a6 6 0 11-12 0 6 6 0 0112 0M528 593a6 6 0 11-12 0 6 6 0 0112 0M546 593a6 6 0 11-12 0 6 6 0 0112 0M563 593a6 6 0 11-12 0 6 6 0 0112 0M581 593a6 6 0 11-12 0 6 6 0 0112 0M599 593a6 6 0 11-12 0 6 6 0 0112 0M688 593a6 6 0 11-12 0 6 6 0 0112 0M706 593a6 6 0 11-12 0 6 6 0 0112 0M723 593a6 6 0 11-12 0 6 6 0 0112 0M741 593a6 6 0 11-12 0 6 6 0 0112 0M48 611a6 6 0 11-12 0 6 6 0 0112 0M65 611a6 6 0 11-12 0 6 6 0 0112 0M83 611a6 6 0 11-12 0 6 6 0 0112 0M101 611a6 6 0 11-12 0 6 6 0 0112 0M119 611a6 6 0 11-12 0 6 6 0 0112 0M136 611a6 6 0 11-12 0 6 6 0 0112 0M154 611a6 6 0 11-12 0 6 6 0 0112 0M172 611a6 6 0 11-12 0 6 6 0 0112 0M190 611a6 6 0 11-12 0 6 6 0 0112 0M208 611a6 6 0 11-12 0 6 6 0 0112 0M225 611a6 6 0 11-12 0 6 6 0 0112 0M279 611a6 6 0 11-12 0 6 6 0 0112 0M350 611a6 6 0 11-12 0 6 6 0 0112 0M368 611a6 6 0 11-12 0 6 6 0 0112 0M385 611a6 6 0 11-12 0 6 6 0 0112 0M457 611a6 6 0 11-12 0 6 6 0 0112 0M474 611a6 6 0 11-12 0 6 6 0 0112 0M492 611a6 6 0 11-12 0 6 6 0 0112 0M510 611a6 6 0 11-12 0 6 6 0 0112 0M528 611a6 6 0 11-12 0 6 6 0 0112 0M546 611a6 6 0 11-12 0 6 6 0 0112 0M563 611a6 6 0 11-12 0 6 6 0 0112 0M581 611a6 6 0 11-12 0 6 6 0 0112 0M599 611a6 6 0 11-12 0 6 6 0 0112 0M617 611a6 6 0 11-12 0 6 6 0 0112 0M635 611a6 6 0 11-12 0 6 6 0 0112 0M652 611a6 6 0 11-12 0 6 6 0 0112 0M670 611a6 6 0 11-12 0 6 6 0 0112 0M688 611a6 6 0 11-12 0 6 6 0 0112 0M706 611a6 6 0 11-12 0 6 6 0 0112 0M723 611a6 6 0 11-12 0 6 6 0 0112 0M741 611a6 6 0 11-12 0 6 6 0 0112 0M48 629a6 6 0 11-12 0 6 6 0 0112 0M65 629a6 6 0 11-12 0 6 6 0 0112 0M83 629a6 6 0 11-12 0 6 6 0 0112 0M101 629a6 6 0 11-12 0 6 6 0 0112 0M119 629a6 6 0 11-12 0 6 6 0 0112 0M136 629a6 6 0 11-12 0 6 6 0 0112 0M154 629a6 6 0 11-12 0 6 6 0 0112 0M172 629a6 6 0 11-12 0 6 6 0 0112 0M190 629a6 6 0 11-12 0 6 6 0 0112 0M208 629a6 6 0 11-12 0 6 6 0 0112 0M225 629a6 6 0 11-12 0 6 6 0 0112 0M314 629a6 6 0 11-12 0 6 6 0 0112 0M332 629a6 6 0 11-12 0 6 6 0 0112 0M368 629a6 6 0 11-12 0 6 6 0 0112 0M385 629a6 6 0 11-12 0 6 6 0 0112 0M403 629a6 6 0 11-12 0 6 6 0 0112 0M421 629a6 6 0 11-12 0 6 6 0 0112 0M492 629a6 6 0 11-12 0 6 6 0 0112 0M510 629a6 6 0 11-12 0 6 6 0 0112 0M528 629a6 6 0 11-12 0 6 6 0 0112 0M546 629a6 6 0 11-12 0 6 6 0 0112 0M563 629a6 6 0 11-12 0 6 6 0 0112 0M581 629a6 6 0 11-12 0 6 6 0 0112 0M599 629a6 6 0 11-12 0 6 6 0 0112 0M617 629a6 6 0 11-12 0 6 6 0 0112 0M635 629a6 6 0 11-12 0 6 6 0 0112 0M652 629a6 6 0 11-12 0 6 6 0 0112 0M670 629a6 6 0 11-12 0 6 6 0 0112 0M688 629a6 6 0 11-12 0 6 6 0 0112 0M706 629a6 6 0 11-12 0 6 6 0 0112 0M723 629a6 6 0 11-12 0 6 6 0 0112 0M741 629a6 6 0 11-12 0 6 6 0 0112 0M30 647a6 6 0 11-12 0 6 6 0 0112 0M48 647a6 6 0 11-12 0 6 6 0 0112 0M65 647a6 6 0 11-12 0 6 6 0 0112 0M83 647a6 6 0 11-12 0 6 6 0 0112 0M101 647a6 6 0 11-12 0 6 6 0 0112 0M119 647a6 6 0 11-12 0 6 6 0 0112 0M136 647a6 6 0 11-12 0 6 6 0 0112 0M154 647a6 6 0 11-12 0 6 6 0 0112 0M172 647a6 6 0 11-12 0 6 6 0 0112 0M190 647a6 6 0 11-12 0 6 6 0 0112 0M385 647a6 6 0 11-12 0 6 6 0 0112 0M403 647a6 6 0 11-12 0 6 6 0 0112 0M421 647a6 6 0 11-12 0 6 6 0 0112 0M439 647a6 6 0 11-12 0 6 6 0 0112 0M457 647a6 6 0 11-12 0 6 6 0 0112 0M492 647a6 6 0 11-12 0 6 6 0 0112 0M510 647a6 6 0 11-12 0 6 6 0 0112 0M528 647a6 6 0 11-12 0 6 6 0 0112 0M546 647a6 6 0 11-12 0 6 6 0 0112 0M599 647a6 6 0 11-12 0 6 6 0 0112 0M617 647a6 6 0 11-12 0 6 6 0 0112 0M635 647a6 6 0 11-12 0 6 6 0 0112 0M652 647a6 6 0 11-12 0 6 6 0 0112 0M670 647a6 6 0 11-12 0 6 6 0 0112 0M688 647a6 6 0 11-12 0 6 6 0 0112 0M706 647a6 6 0 11-12 0 6 6 0 0112 0M723 647a6 6 0 11-12 0 6 6 0 0112 0M741 647a6 6 0 11-12 0 6 6 0 0112 0"/>
        <g transform="translate(0 658)">
            <mask id="prefix__b" fill="#fff">
                <use xlink:href="#prefix__a"/>
            </mask>
            <path fill="#F6F4F8" d="M12.284 6.6A6.142 6.142 0 110 6.598a6.142 6.142 0 0112.284 0" mask="url(#prefix__b)"/>
        </g>
        <path fill="#F6F4F8" d="M30 664a6 6 0 11-12 0 6 6 0 0112 0M48 664a6 6 0 11-12 0 6 6 0 0112 0M65 664a6 6 0 11-12 0 6 6 0 0112 0M83 664a6 6 0 11-12 0 6 6 0 0112 0M101 664a6 6 0 11-12 0 6 6 0 0112 0M119 664a6 6 0 11-12 0 6 6 0 0112 0M136 664a6 6 0 11-12 0 6 6 0 0112 0M154 664a6 6 0 11-12 0 6 6 0 0112 0M172 664a6 6 0 11-12 0 6 6 0 0112 0M314 664a6 6 0 11-12 0 6 6 0 0112 0M332 664a6 6 0 11-12 0 6 6 0 0112 0M421 664a6 6 0 11-12 0 6 6 0 0112 0M439 664a6 6 0 11-12 0 6 6 0 0112 0M457 664a6 6 0 11-12 0 6 6 0 0112 0M474 664a6 6 0 11-12 0 6 6 0 0112 0M510 664a6 6 0 11-12 0 6 6 0 0112 0M528 664a6 6 0 11-12 0 6 6 0 0112 0M546 664a6 6 0 11-12 0 6 6 0 0112 0M617 664a6 6 0 11-12 0 6 6 0 0112 0M635 664a6 6 0 11-12 0 6 6 0 0112 0M652 664a6 6 0 11-12 0 6 6 0 0112 0M670 664a6 6 0 11-12 0 6 6 0 0112 0M688 664a6 6 0 11-12 0 6 6 0 0112 0M706 664a6 6 0 11-12 0 6 6 0 0112 0M723 664a6 6 0 11-12 0 6 6 0 0112 0M741 664a6 6 0 11-12 0 6 6 0 0112 0M30 682a6 6 0 11-12 0 6 6 0 0112 0M48 682a6 6 0 11-12 0 6 6 0 0112 0M65 682a6 6 0 11-12 0 6 6 0 0112 0M83 682a6 6 0 11-12 0 6 6 0 0112 0M101 682a6 6 0 11-12 0 6 6 0 0112 0M119 682a6 6 0 11-12 0 6 6 0 0112 0M136 682a6 6 0 11-12 0 6 6 0 0112 0M154 682a6 6 0 11-12 0 6 6 0 0112 0M225 682a6 6 0 11-12 0 6 6 0 0112 0M243 682a6 6 0 11-12 0 6 6 0 0112 0M314 682a6 6 0 11-12 0 6 6 0 0112 0M332 682a6 6 0 11-12 0 6 6 0 0112 0M439 682a6 6 0 11-12 0 6 6 0 0112 0M510 682a6 6 0 11-12 0 6 6 0 0112 0M528 682a6 6 0 11-12 0 6 6 0 0112 0M546 682a6 6 0 11-12 0 6 6 0 0112 0M563 682a6 6 0 11-12 0 6 6 0 0112 0M617 682a6 6 0 11-12 0 6 6 0 0112 0M635 682a6 6 0 11-12 0 6 6 0 0112 0M652 682a6 6 0 11-12 0 6 6 0 0112 0M670 682a6 6 0 11-12 0 6 6 0 0112 0M688 682a6 6 0 11-12 0 6 6 0 0112 0M706 682a6 6 0 11-12 0 6 6 0 0112 0M723 682a6 6 0 11-12 0 6 6 0 0112 0M741 682a6 6 0 11-12 0 6 6 0 0112 0"/>
        <g transform="translate(0 694)">
            <mask id="prefix__d" fill="#fff">
                <use xlink:href="#prefix__c"/>
            </mask>
            <path fill="#F6F4F8" d="M12.284 6.183A6.142 6.142 0 110 6.183a6.142 6.142 0 0112.284 0" mask="url(#prefix__d)"/>
        </g>
        <path fill="#F6F4F8" d="M30 700a6 6 0 11-12 0 6 6 0 0112 0M48 700a6 6 0 11-12 0 6 6 0 0112 0M65 700a6 6 0 11-12 0 6 6 0 0112 0M83 700a6 6 0 11-12 0 6 6 0 0112 0M101 700a6 6 0 11-12 0 6 6 0 0112 0M119 700a6 6 0 11-12 0 6 6 0 0112 0M136 700a6 6 0 11-12 0 6 6 0 0112 0M154 700a6 6 0 11-12 0 6 6 0 0112 0M172 700a6 6 0 11-12 0 6 6 0 0112 0M314 700a6 6 0 11-12 0 6 6 0 0112 0M439 700a6 6 0 11-12 0 6 6 0 0112 0M528 700a6 6 0 11-12 0 6 6 0 0112 0M546 700a6 6 0 11-12 0 6 6 0 0112 0M563 700a6 6 0 11-12 0 6 6 0 0112 0M635 700a6 6 0 11-12 0 6 6 0 0112 0M652 700a6 6 0 11-12 0 6 6 0 0112 0M670 700a6 6 0 11-12 0 6 6 0 0112 0M65 718a6 6 0 11-12 0 6 6 0 0112 0M83 718a6 6 0 11-12 0 6 6 0 0112 0M101 718a6 6 0 11-12 0 6 6 0 0112 0M119 718a6 6 0 11-12 0 6 6 0 0112 0M136 718a6 6 0 11-12 0 6 6 0 0112 0M154 718a6 6 0 11-12 0 6 6 0 0112 0M385 718a6 6 0 11-12 0 6 6 0 0112 0M403 718a6 6 0 11-12 0 6 6 0 0112 0M421 718a6 6 0 11-12 0 6 6 0 0112 0M546 718a6 6 0 11-12 0 6 6 0 0112 0M652 718a6 6 0 11-12 0 6 6 0 0112 0M670 718a6 6 0 11-12 0 6 6 0 0112 0M723 718a6 6 0 11-12 0 6 6 0 0112 0M741 718a6 6 0 11-12 0 6 6 0 0112 0M65 736a6 6 0 11-12 0 6 6 0 0112 0M119 736a6 6 0 11-12 0 6 6 0 0112 0M403 736a6 6 0 11-12 0 6 6 0 0112 0M421 736a6 6 0 11-12 0 6 6 0 0112 0M546 736a6 6 0 11-12 0 6 6 0 0112 0"/>
        <g transform="translate(569 746)">
            <mask id="prefix__f" fill="#fff">
                <use xlink:href="#prefix__e"/>
            </mask>
            <path fill="#F6F4F8" d="M12.555 6.858a6.142 6.142 0 11-12.284 0 6.142 6.142 0 0112.284 0" mask="url(#prefix__f)"/>
        </g>
        <g transform="translate(586 746)">
            <mask id="prefix__h" fill="#fff">
                <use xlink:href="#prefix__g"/>
            </mask>
            <path fill="#F6F4F8" d="M12.78 6.858a6.142 6.142 0 11-12.284 0 6.142 6.142 0 0112.284 0" mask="url(#prefix__h)"/>
        </g>
        <g transform="translate(604 746)">
            <mask id="prefix__j" fill="#fff">
                <use xlink:href="#prefix__i"/>
            </mask>
            <path fill="#F6F4F8" d="M13.005 6.858a6.142 6.142 0 11-12.284 0 6.142 6.142 0 0112.284 0" mask="url(#prefix__j)"/>
        </g>
    </g>
</svg>
